<?xml version="1.0" encoding="UTF-8"?>
<!DOCTYPE svg PUBLIC "-//W3C//DTD SVG 1.1//EN" "http://www.w3.org/Graphics/SVG/1.1/DTD/svg11.dtd">
<!-- Creator: CorelDRAW -->
<svg xmlns="http://www.w3.org/2000/svg" xml:space="preserve" width="700px" height="700px" version="1.1" style="shape-rendering:geometricPrecision; text-rendering:geometricPrecision; image-rendering:optimizeQuality; fill-rule:evenodd; clip-rule:evenodd"
viewBox="0 0 700 700"
 xmlns:xlink="http://www.w3.org/1999/xlink">
 <defs>
  <style type="text/css">
   <![CDATA[
    .fil0 {fill:black}
   ]]>
  </style>
 </defs>
 <g id="Layer_x0020_1">
  <metadata id="CorelCorpID_0Corel-Layer"/>
  <path class="fil0" d="M522 201l-7 0c-7,20 -26,35 -49,35l-42 0 0 0 -66 0 0 0 -5 0 0 91c0,17 -14,32 -32,32 -16,0 -30,-12 -32,-27 -6,7 -13,11 -21,11 -8,0 -15,-4 -20,-11 -2,17 -15,30 -32,30 -18,0 -33,-15 -33,-32l0 -94c-7,-1 -14,-3 -20,-7 -1,0 -2,0 -2,-1 -2,0 -2,-1 -3,-2 -8,-7 -15,-15 -18,-25l-7 0c-19,0 -35,-16 -35,-36 0,-19 16,-35 35,-35l7 0c7,-21 27,-36 49,-36l38 0c1,0 1,0 1,0l65 0c1,0 1,0 1,0l65 0c1,0 1,0 1,0l65 0c1,0 1,0 1,0l40 0c23,0 42,15 49,36l7 0c17,0 32,12 35,29l25 0c11,0 20,9 20,20l0 80c0,1 0,2 0,3l0 0 0 0c-1,1 -2,2 -3,3l0 0 0 0c0,0 0,0 -1,0l-170 82 0 80 35 0c3,0 6,3 6,6l0 44 0 82c0,26 -21,47 -47,47 -25,0 -46,-21 -46,-47l0 -126c0,-3 2,-6 6,-6l34 0 0 -84c0,-2 2,-4 4,-5l170 -82 0 -77c0,-4 -3,-8 -8,-8l-25 0c-3,17 -18,30 -35,30zm-17 -7c0,0 0,0 0,-1 1,-2 1,-5 1,-7l0 -1 0 0 0 0 0 0 0 -1 0 0 0 -37 0 -1 0 0 0 0 0 -1 0 0 0 0 0 -1 0 0c0,-2 0,-5 -1,-7 0,0 0,0 0,-1 -2,-8 -7,-16 -14,-21l-57 109 32 0c19,0 34,-13 39,-30zm-368 -5c0,-2 0,-4 0,-5l0 -37c0,-2 0,-4 0,-5l-4 0 0 -1c-13,0 -23,11 -23,24 0,13 10,24 23,24l4 0zm52 -83c-21,0 -39,17 -40,38l0 0 0 1c0,0 0,0 0,1l0 0 0 0c0,0 0,0 0,1l0 37 0 1 0 0 0 0 0 0 0 1 0 0 0 0 0 0 0 0c0,3 1,5 1,7 0,1 0,1 0,1 2,7 6,14 12,19l56 -107 -29 0zm-17 114c5,3 10,4 16,4 1,0 1,0 1,0l33 0 62 -118 -53 0 -59 114zm177 4l5 0 62 -118 -53 0 -61 118 45 0c1,0 1,0 2,0zm19 0l52 0 61 -115c-5,-2 -10,-3 -15,-3l-37 0 -61 118zm-18 -118l-53 0 -61 118 52 0 62 -118zm38 333l0 32 69 0 0 -32 -35 0 -34 0zm0 44l0 76c0,19 15,35 34,35 19,0 35,-16 35,-35l0 -76 -69 0zm34 91c-14,0 -25,-11 -25,-26 0,-14 11,-25 25,-25 14,0 26,11 26,25 0,15 -12,26 -26,26zm0 -39c-7,0 -13,6 -13,13 0,8 6,14 13,14 8,0 14,-6 14,-14 0,-7 -6,-13 -14,-13zm-227 -299l0 94c0,11 10,20 21,20 11,0 20,-9 20,-20l0 -28c0,-4 3,-6 6,-6 3,0 6,2 6,6 0,12 10,29 20,29 10,0 21,-17 21,-29 0,-4 2,-6 6,-6 3,0 6,2 6,6l0 25c0,11 9,20 20,20 11,0 20,-9 20,-20l0 -91 -49 0 0 0 -66 0 0 0 -31 0zm323 -47l4 0c13,0 23,-11 23,-24 0,-13 -10,-23 -23,-23l-4 0c0,1 0,3 0,5l0 37c0,0 0,1 0,1l0 0 0 0 0 1 0 0 0 0 0 0 0 0 0 0 0 0 0 0 0 0 0 1 0 0c0,0 0,1 0,2z"/>
 </g>
</svg>
